HIERARCHY
ROOT Hips
{
	OFFSET 0.000000 0.000000 0.000000
	CHANNELS 6 Xposition Yposition Zposition Zrotation Yrotation Xrotation 
	JOINT LeftUpLeg_virtual
	{
		OFFSET 0.000000 0.000000 0.000000
		CHANNELS 3 Zrotation Yrotation Xrotation
		JOINT LeftUpLeg
		{
			OFFSET 8.479694 -4.795517 -0.379053
			CHANNELS 3 Zrotation Yrotation Xrotation
			JOINT LeftLeg
			{
				OFFSET 0.485052 -32.551468 0.112863
				CHANNELS 3 Zrotation Yrotation Xrotation
				JOINT LeftFoot
				{
					OFFSET 0.438033 -32.635670 -3.012641
					CHANNELS 3 Zrotation Yrotation Xrotation
					JOINT LeftToeBase
					{
						OFFSET 0.970169 -13.225353 11.864223
						CHANNELS 3 Zrotation Yrotation Xrotation
						End Site
						{
							OFFSET 0.000000 0.000000 0.000000
						}
					}
				}
			}
		}
	}
	JOINT RightUpLeg_virtual
	{
		OFFSET 0.000000 0.000000 0.000000
		CHANNELS 3 Zrotation Yrotation Xrotation
		JOINT RightUpLeg
		{
			OFFSET -8.479694 -4.795517 -0.379053
			CHANNELS 3 Zrotation Yrotation Xrotation
			JOINT RightLeg
			{
				OFFSET -0.484100 -32.551483 0.112903
				CHANNELS 3 Zrotation Yrotation Xrotation
				JOINT RightFoot
				{
					OFFSET -0.438985 -32.635651 -3.012681
					CHANNELS 3 Zrotation Yrotation Xrotation
					JOINT RightToeBase
					{
						OFFSET -0.970169 -13.225354 11.864223
						CHANNELS 3 Zrotation Yrotation Xrotation
						End Site
						{
							OFFSET 0.000000 0.000000 0.000000
						}
					}
				}
			}
		}
	}
	JOINT Spine_virtual
	{
		OFFSET 0.000000 0.000000 0.000000
		CHANNELS 3 Zrotation Yrotation Xrotation
		JOINT Spine
		{
			OFFSET 0.000000 7.722015 1.166203
			CHANNELS 3 Zrotation Yrotation Xrotation
			JOINT Spine1
			{
				OFFSET 0.000000 12.024086 0.248766
				CHANNELS 3 Zrotation Yrotation Xrotation
				JOINT Spine2
				{
					OFFSET -0.000000 11.503036 -0.491240
					CHANNELS 3 Zrotation Yrotation Xrotation
					JOINT Neck_virtual
					{
						OFFSET 0.000000 0.000000 0.000000
						CHANNELS 3 Zrotation Yrotation Xrotation
						JOINT Neck
						{
							OFFSET 0.000000 18.430687 -3.123054
							CHANNELS 3 Zrotation Yrotation Xrotation
							JOINT Head
							{
								OFFSET -0.000000 9.051071 1.034021
								CHANNELS 3 Zrotation Yrotation Xrotation
								End Site
								{
									OFFSET 0.000000 0.000000 0.000000
								}
							}
						}
					}
					JOINT LeftShoulder_virtual
					{
						OFFSET 0.000000 0.000000 0.000000
						CHANNELS 3 Zrotation Yrotation Xrotation
						JOINT LeftShoulder
						{
							OFFSET 6.197824 13.665230 -4.064723
							CHANNELS 3 Zrotation Yrotation Xrotation
							JOINT LeftArm
							{
								OFFSET 7.778132 -0.187073 -1.709282
								CHANNELS 3 Zrotation Yrotation Xrotation
								JOINT LeftForeArm
								{
									OFFSET 21.954697 0.000000 -2.041093
									CHANNELS 3 Zrotation Yrotation Xrotation
									JOINT LeftHand
									{
										OFFSET 22.992908 0.000000 -0.870901
										CHANNELS 3 Zrotation Yrotation Xrotation
										End Site
										{
											OFFSET 0.000000 0.000000 0.000000
										}
									}
								}
							}
						}
					}
					JOINT RightShoulder_virtual
					{
						OFFSET 0.000000 0.000000 0.000000
						CHANNELS 3 Zrotation Yrotation Xrotation
						JOINT RightShoulder
						{
							OFFSET -6.197824 13.665230 -4.064723
							CHANNELS 3 Zrotation Yrotation Xrotation
							JOINT RightArm
							{
								OFFSET -7.778132 -0.187073 -1.709282
								CHANNELS 3 Zrotation Yrotation Xrotation
								JOINT RightForeArm
								{
									OFFSET -21.954697 0.000000 -2.041093
									CHANNELS 3 Zrotation Yrotation Xrotation
									JOINT RightHand
									{
										OFFSET -22.992908 0.000000 -0.870901
										CHANNELS 3 Zrotation Yrotation Xrotation
										End Site
										{
											OFFSET 0.000000 0.000000 0.000000
										}
									}
								}
							}
						}
					}
				}
			}
		}
	}
}
MOTION
Frames: 8
Frame Time: 0.033333
-6.720384 52.540592 32.515816 -179.994268 4.404019 179.991180 5.205744 -5.041374 -29.270024 -3.082737 7.795847 -56.872424 12.451676 -0.670477 37.062864 -7.192485 -25.971564 -0.432346 0.000000 0.000000 0.000000 -0.144446 1.515617 -23.100890 0.595519 2.845777 -68.316372 -1.510268 1.716278 40.201797 10.022283 1.664572 23.126956 0.000000 0.000000 0.000000 -3.821374 3.720628 -34.835030 1.322927 -2.819033 -9.286509 -1.523158 -3.470738 12.183793 0.010071 0.039710 0.016849 -1.910399 -3.142658 15.922257 0.983920 -0.458058 26.162597 0.000000 0.000000 0.000000 2.057107 -2.728623 8.661105 -0.748302 7.989093 -4.877227 48.767114 -22.116692 -85.431829 -167.621899 -72.703628 -173.434636 0.000000 0.000000 0.000000 -4.270332 -0.639483 7.924763 18.121219 5.908754 -9.659655 -30.043571 -4.459403 -62.810160 174.216310 38.907223 177.152417 0.000000 0.000000 0.000000 
-6.744203 52.524742 32.484604 -179.958054 4.276629 -179.978667 5.193179 -5.189312 -29.171816 -3.548662 7.682203 -57.070462 12.259297 -0.298258 37.492326 -7.940861 -27.046156 -0.695654 0.000000 0.000000 0.000000 -0.274488 1.365580 -23.181537 1.036588 2.527657 -68.410382 -0.854261 1.730159 40.989055 11.531868 2.377326 24.665136 0.000000 0.000000 0.000000 -3.890404 3.654006 -34.812788 1.266129 -2.809423 -9.384129 -1.474140 -3.454482 12.166297 0.045901 -0.009232 -0.010884 -1.871644 -3.112239 16.037998 0.949039 -0.396016 26.344883 0.000000 0.000000 0.000000 2.089709 -2.722557 8.760657 -0.911800 7.963422 -4.845226 48.623854 -21.695220 -85.208802 -167.311972 -72.808669 -173.692885 0.000000 0.000000 0.000000 -4.213662 -0.599439 8.003987 18.173332 5.818931 -9.604616 -29.911786 -5.129110 -62.758312 174.058260 38.712535 177.138484 0.000000 0.000000 0.000000 
-6.774432 52.512470 32.492500 179.823745 4.147944 179.970171 5.059186 -5.379021 -29.069500 -4.076319 7.670539 -57.278093 12.511435 0.505862 37.965262 -7.649844 -27.064812 -1.210738 0.000000 0.000000 0.000000 0.180010 1.231958 -22.852187 1.948456 2.053636 -68.229389 -1.773210 -0.057942 41.773396 8.643684 0.836299 21.301588 0.000000 0.000000 0.000000 -4.025353 3.454194 -34.748881 1.213506 -2.806384 -9.435173 -1.475863 -3.429921 12.186433 0.009403 0.062770 0.010539 -1.752755 -3.037955 16.027736 0.878816 -0.482275 26.441332 0.000000 0.000000 0.000000 2.160285 -2.627952 8.713989 -1.073045 7.946148 -4.810554 48.353303 -21.504154 -85.078810 -167.247195 -72.759423 -173.677408 0.000000 0.000000 0.000000 -4.147478 -0.512870 7.992877 18.135745 5.853545 -9.464768 -29.597610 -5.475039 -62.892279 174.070895 38.511653 177.263012 0.000000 0.000000 0.000000 
-6.805794 52.507217 32.529198 179.689245 3.967107 179.995675 5.003588 -5.562799 -29.030326 -4.435806 7.560692 -57.432581 12.901578 1.039111 38.083017 -6.847966 -26.371642 -1.546478 0.000000 0.000000 0.000000 0.435762 1.164007 -22.668747 2.550272 1.699865 -68.113215 -2.046609 -0.834125 42.194487 6.293721 -0.550640 18.548115 0.000000 0.000000 0.000000 -3.998722 3.211608 -34.689096 1.073259 -2.621015 -9.492939 -1.444941 -3.299931 12.206891 0.006615 0.009442 0.017514 -1.712349 -3.024148 16.093616 0.872491 -0.211599 26.507160 0.000000 0.000000 0.000000 2.250368 -2.626917 8.760869 -1.048521 7.807600 -4.753827 48.132883 -21.539736 -85.005365 -167.103570 -72.617506 -173.727569 0.000000 0.000000 0.000000 -4.034899 -0.509771 8.041343 18.127949 5.909994 -9.434803 -29.084445 -5.440766 -63.021759 174.139088 38.252191 177.301206 0.000000 0.000000 0.000000 
-6.822578 52.503838 32.578094 179.570017 3.750457 179.987355 4.899261 -5.648362 -28.924622 -4.625938 7.397628 -57.408771 13.097993 1.067865 37.812675 -6.806918 -26.551250 -1.309343 0.000000 0.000000 0.000000 0.387726 1.036538 -22.657623 2.781922 1.471430 -68.149879 -2.090915 -0.677628 42.117716 6.155528 -0.604974 18.353080 0.000000 0.000000 0.000000 -4.115205 3.133610 -34.565593 0.936462 -2.570900 -9.549555 -1.323921 -3.337686 12.245776 0.070629 0.036884 0.019732 -1.712598 -3.025829 16.165314 0.853421 -0.339534 26.549645 0.000000 0.000000 0.000000 2.181574 -2.582825 8.831785 -1.220545 7.664864 -4.749751 48.010592 -21.750348 -85.025938 -167.064310 -72.604201 -173.645661 0.000000 0.000000 0.000000 -4.154479 -0.449017 8.135658 17.980850 6.072320 -9.334557 -28.682703 -5.198473 -63.013345 174.217922 38.099809 177.325822 0.000000 0.000000 0.000000 
-6.847459 52.495007 32.625126 179.736906 3.574382 179.991918 4.988409 -5.650134 -28.892779 -4.743598 7.240670 -57.424720 13.182969 1.141763 37.615559 -6.816028 -26.783463 -1.075768 0.000000 0.000000 0.000000 0.389170 1.033133 -22.575505 3.046725 1.316035 -68.089418 -2.133450 -0.582007 42.024979 5.935203 -0.713731 18.215201 0.000000 0.000000 0.000000 -3.953532 3.043594 -34.419188 0.978382 -2.466313 -9.618330 -1.376183 -3.292300 12.267747 -0.011453 0.097776 0.008194 -1.671042 -2.973178 16.239804 0.853271 -0.058536 26.480164 0.000000 0.000000 0.000000 2.271195 -2.558846 8.893131 -1.200482 7.506962 -4.720737 47.857489 -21.951625 -85.040220 -167.086453 -72.485219 -173.482256 0.000000 0.000000 0.000000 -4.035701 -0.416316 8.205734 17.925546 6.169190 -9.341836 -28.335666 -4.803442 -63.003646 174.336071 37.776397 177.380423 0.000000 0.000000 0.000000 
-6.868609 52.484360 32.660938 179.808432 3.372223 -179.904983 5.059090 -5.750239 -28.926906 -4.901645 7.297242 -57.487271 13.127426 1.202468 37.472009 -6.812697 -26.959595 -0.852592 0.000000 0.000000 0.000000 0.236545 0.989190 -22.622864 3.253672 1.194826 -68.139374 -2.243017 -0.342873 41.879561 5.653288 -0.867632 18.227282 0.000000 0.000000 0.000000 -3.954463 3.040890 -34.345743 0.917901 -2.430066 -9.721414 -1.314118 -3.320945 12.285728 0.039514 0.078035 -0.003022 -1.712184 -2.951116 16.364162 0.841847 0.049659 26.482296 0.000000 0.000000 0.000000 2.246766 -2.551029 8.985219 -1.211861 7.343718 -4.769888 47.807557 -22.215107 -85.065136 -166.996254 -72.427538 -173.419869 0.000000 0.000000 0.000000 -4.064054 -0.362986 8.362143 17.750955 6.261874 -9.454258 -27.983417 -4.343830 -62.852275 174.378227 37.498907 177.272410 0.000000 0.000000 0.000000 
-6.890038 52.465778 32.680759 179.980266 3.183528 -179.983326 4.990542 -5.697182 -29.050652 -5.052194 7.328880 -57.352873 13.119963 1.249340 37.394913 -6.962324 -27.149741 -0.667887 0.000000 0.000000 0.000000 0.141691 1.044250 -22.574052 3.413013 1.209872 -68.036191 -2.338048 -0.046719 41.848467 5.533837 -0.910973 18.198619 0.000000 0.000000 0.000000 -3.938346 3.162769 -34.213524 0.913661 -2.387645 -9.753139 -1.270711 -3.332300 12.336860 0.017256 0.044099 0.019330 -1.669807 -3.001701 16.352214 0.894928 0.060709 26.422457 0.000000 0.000000 0.000000 2.247231 -2.574167 9.042940 -1.164366 7.120945 -4.760215 47.800051 -22.326633 -85.137604 -167.313311 -72.399104 -172.931579 0.000000 0.000000 0.000000 -4.058446 -0.440184 8.334739 17.740076 6.248348 -9.467092 -27.862544 -4.103989 -62.763824 174.526578 37.199263 177.319415 0.000000 0.000000 0.000000 
